<svg width="95" height="95" viewBox="0 0 95 95" xmlns="http://www.w3.org/2000/svg" xmlns:xlink="http://www.w3.org/1999/xlink"><title>avatar-sharo-2x</title><defs><rect id="a" width="95" height="95" rx="22"/><linearGradient x1="50%" y1="0%" x2="50%" y2="100%" id="b"><stop stop-color="#ACDAF2" offset="0%"/><stop stop-color="#86BDE5" offset="57.569%"/><stop stop-color="#62BFE7" offset="100%"/></linearGradient></defs><g fill="none" fill-rule="evenodd"><mask id="c" fill="#fff"><use xlink:href="#a"/></mask><use fill="#FFF" xlink:href="#a"/><path d="M70.833 6.5H36.91c-1.262 0-2.284 1.023-2.284 2.284v45.048c0 10.1.36 16.47 13.704 16.47 12.87 0 17.576-11.513 18.435-24.41.054-.81.74-1.437 1.555-1.437h7.41c.866 0 1.576.71 1.554 1.574-.447 17.9-8.612 34.13-28.352 34.13-17.552 0-23.323-6.37-23.323-17.67V7.22c0-.398-.325-.72-.72-.72C14.73 6.5 6.5 14.733 6.5 24.888V70.83c0 9.76 7.91 17.67 17.67 17.67h46.66c9.758 0 17.668-7.91 17.668-17.668V24.168C88.5 14.41 80.59 6.5 70.833 6.5" fill="url(#b)" mask="url(#c)"/></g></svg>