<svg width="2040" height="2040" viewBox="0 0 2040 2040" xmlns="http://www.w3.org/2000/svg"><title>logo-durarara</title><g fill="none" fill-rule="evenodd"><circle fill="#FFF" cx="1020" cy="1020" r="1020"/><circle fill="#000" cx="1020" cy="1020" r="1000"/><circle fill="#FFF" cx="1020" cy="1020" r="905"/><circle fill="#000" cx="1020" cy="1020" r="845"/><path d="M464.08 934c8.762 0 15.865 7.108 15.865 15.87 0 8.765-7.103 15.867-15.866 15.867-8.765 0-15.868-7.102-15.868-15.866 0-8.76 7.103-15.87 15.866-15.87M342.08 1038.2c8.762 0 15.865 7.11 15.865 15.872 0 8.763-7.103 15.866-15.866 15.866-8.765 0-15.868-7.103-15.868-15.866s7.103-15.87 15.866-15.87m295.328 71.825c8.763 0 15.866 7.108 15.866 15.87 0 8.764-7.103 15.867-15.866 15.867s-15.866-7.103-15.866-15.866 7.103-15.87 15.866-15.87m37.674-141.29c8.762 0 15.865 7.102 15.865 15.865s-7.103 15.866-15.866 15.866c-8.765 0-15.868-7.105-15.868-15.868s7.103-15.866 15.866-15.866m66.842 34.47c8.762 0 15.865 7.103 15.865 15.866s-7.103 15.866-15.866 15.866c-8.765 0-15.868-7.103-15.868-15.866s7.103-15.866 15.866-15.866M947.08 934c8.762 0 15.865 7.108 15.865 15.87 0 8.765-7.103 15.867-15.866 15.867-8.765 0-15.868-7.102-15.868-15.866 0-8.76 7.103-15.87 15.866-15.87m37.722 176.027c8.762 0 15.865 7.108 15.865 15.87 0 8.764-7.103 15.867-15.866 15.867-8.765 0-15.868-7.103-15.868-15.866s7.103-15.87 15.866-15.87M1230.08 1038c8.762 0 15.865 7.108 15.865 15.87 0 8.765-7.103 15.867-15.866 15.867-8.765 0-15.868-7.102-15.868-15.866 0-8.76 7.103-15.87 15.866-15.87m36.002-70c8.762 0 15.865 7.103 15.865 15.866s-7.103 15.866-15.866 15.866c-8.765 0-15.868-7.103-15.868-15.866S1257.316 968 1266.08 968m103 69.938c8.762 0 15.865 7.108 15.865 15.872 0 8.763-7.103 15.865-15.866 15.865-8.765 0-15.868-7.102-15.868-15.865 0-8.764 7.103-15.872 15.866-15.872M1508.08 934c8.762 0 15.865 7.108 15.865 15.87 0 8.765-7.103 15.867-15.866 15.867-8.765 0-15.868-7.102-15.868-15.866 0-8.76 7.103-15.87 15.866-15.87m-20.998 139c8.762 0 15.865 7.108 15.865 15.87 0 8.765-7.103 15.867-15.866 15.867-8.765 0-15.868-7.102-15.868-15.866 0-8.76 7.103-15.87 15.866-15.87m88.002 0c8.762 0 15.865 7.108 15.865 15.87 0 8.765-7.103 15.867-15.866 15.867-8.765 0-15.868-7.102-15.868-15.866 0-8.76 7.103-15.87 15.866-15.87m139.002-35c8.762 0 15.865 7.108 15.865 15.87 0 8.765-7.103 15.867-15.866 15.867-8.765 0-15.868-7.102-15.868-15.866 0-8.76 7.103-15.87 15.866-15.87M1608.08 899c8.762 0 15.865 7.108 15.865 15.87 0 8.765-7.103 15.867-15.866 15.867-8.765 0-15.868-7.102-15.868-15.866 0-8.76 7.103-15.87 15.866-15.87" fill="#0FF"/><path d="M436.613 899c8.763 0 15.865 7.108 15.865 15.87 0 8.765-7.102 15.867-15.865 15.867-8.764 0-15.866-7.102-15.866-15.866 0-8.76 7.102-15.87 15.866-15.87m-37.283 211.027c8.763 0 15.865 7.108 15.865 15.87 0 8.764-7.102 15.867-15.866 15.867s-15.867-7.103-15.867-15.866 7.102-15.87 15.865-15.87m131.565-106.558c8.763 0 15.865 7.102 15.865 15.865s-7.102 15.866-15.865 15.866c-8.764 0-15.866-7.1-15.866-15.864s7.102-15.866 15.866-15.866M675.613 934c8.763 0 15.865 7.108 15.865 15.87 0 8.765-7.102 15.867-15.865 15.867-8.764 0-15.866-7.102-15.866-15.866 0-8.76 7.102-15.87 15.866-15.87m66.307 176.027c8.762 0 15.865 7.108 15.865 15.87 0 8.764-7.103 15.867-15.866 15.867-8.765 0-15.868-7.103-15.868-15.866s7.103-15.87 15.866-15.87m149.495 0c8.763 0 15.866 7.107 15.866 15.87 0 8.763-7.105 15.866-15.868 15.866-8.764 0-15.866-7.103-15.866-15.866s7.102-15.87 15.866-15.87m56.2-37.028c8.764 0 15.866 7.108 15.866 15.87 0 8.765-7.102 15.867-15.865 15.867-8.764 0-15.866-7.102-15.866-15.866 0-8.76 7.102-15.87 15.866-15.87m-.22-174c8.763 0 15.866 7.108 15.866 15.87 0 8.765-7.105 15.867-15.868 15.867-8.764 0-15.866-7.102-15.866-15.866 0-8.76 7.102-15.87 15.866-15.87m247.22 69c8.764 0 15.866 7.103 15.866 15.866s-7.102 15.866-15.865 15.866c-8.764 0-15.866-7.103-15.866-15.866S1185.85 968 1194.613 968m-37 142c8.763 0 15.865 7.108 15.865 15.87 0 8.765-7.102 15.867-15.865 15.867-8.764 0-15.866-7.102-15.866-15.866 0-8.76 7.102-15.87 15.866-15.87m145-37c8.763 0 15.865 7.108 15.865 15.87 0 8.765-7.102 15.867-15.865 15.867-8.764 0-15.866-7.102-15.866-15.866 0-8.76 7.102-15.87 15.866-15.87m67-70c8.763 0 15.865 7.103 15.865 15.866s-7.102 15.866-15.865 15.866c-8.764 0-15.866-7.103-15.866-15.866s7.102-15.866 15.866-15.866m33.187-104c8.762 0 15.865 7.108 15.865 15.87 0 8.765-7.103 15.867-15.866 15.867-8.765 0-15.868-7.102-15.868-15.866 0-8.76 7.103-15.87 15.866-15.87m66.815 140c8.763 0 15.865 7.103 15.865 15.866s-7.102 15.866-15.865 15.866c-8.764 0-15.866-7.103-15.866-15.866s7.102-15.866 15.866-15.866m139-36c8.763 0 15.865 7.103 15.865 15.866s-7.102 15.866-15.865 15.866c-8.764 0-15.866-7.103-15.866-15.866s7.102-15.866 15.866-15.866m38.197-104c8.764 0 15.867 7.108 15.867 15.87 0 8.765-7.103 15.867-15.866 15.867-8.76 0-15.864-7.102-15.864-15.866 0-8.76 7.103-15.87 15.866-15.87m-.002 211c8.764 0 15.867 7.108 15.867 15.87 0 8.765-7.103 15.867-15.866 15.867-8.76 0-15.864-7.102-15.864-15.866 0-8.76 7.103-15.87 15.866-15.87" fill="#FFA9EC"/><g fill="#98FAB8"><path d="M362.15 899c8.764 0 15.867 7.108 15.867 15.87 0 8.765-7.103 15.867-15.866 15.867-8.76 0-15.864-7.102-15.864-15.866 0-8.76 7.103-15.87 15.866-15.87m102.1 139.2c8.764 0 15.866 7.11 15.866 15.872 0 8.763-7.102 15.866-15.865 15.866-8.764 0-15.866-7.103-15.866-15.866s7.102-15.87 15.866-15.87m-101.655 71.825c8.763 0 15.866 7.108 15.866 15.87 0 8.764-7.103 15.867-15.866 15.867-8.764 0-15.866-7.103-15.866-15.866s7.102-15.87 15.866-15.87M530.74 1073c8.762 0 15.865 7.108 15.865 15.87 0 8.765-7.103 15.867-15.866 15.867-8.765 0-15.868-7.102-15.868-15.866 0-8.76 7.103-15.87 15.866-15.87m144.542-69.53c8.762 0 15.865 7.102 15.865 15.865s-7.103 15.866-15.866 15.866c-8.765 0-15.868-7.1-15.868-15.864s7.103-15.866 15.866-15.866M741.74 934c8.762 0 15.865 7.108 15.865 15.87 0 8.765-7.103 15.867-15.866 15.867-8.765 0-15.868-7.102-15.868-15.866 0-8.76 7.103-15.87 15.866-15.87m74.062 176.027c8.762 0 15.865 7.108 15.865 15.87 0 8.764-7.103 15.867-15.866 15.867-8.765 0-15.868-7.103-15.868-15.866s7.103-15.87 15.866-15.87m131.595-72.09c8.763 0 15.866 7.108 15.866 15.872 0 8.763-7.105 15.865-15.868 15.865-8.764 0-15.866-7.102-15.866-15.865 0-8.764 7.102-15.872 15.866-15.872m150.494 72.09c8.763 0 15.866 7.107 15.866 15.87 0 8.763-7.103 15.866-15.866 15.866s-15.866-7.103-15.866-15.866 7.103-15.87 15.866-15.87M1157.74 1038c8.762 0 15.865 7.108 15.865 15.87 0 8.765-7.103 15.867-15.866 15.867-8.765 0-15.868-7.102-15.868-15.866 0-8.76 7.103-15.87 15.866-15.87m90.002-104c8.762 0 15.865 7.108 15.865 15.87 0 8.765-7.103 15.867-15.866 15.867-8.765 0-15.868-7.102-15.868-15.866 0-8.76 7.103-15.87 15.866-15.87m122.002-35c8.762 0 15.865 7.108 15.865 15.87 0 8.765-7.103 15.867-15.866 15.867-8.765 0-15.868-7.102-15.868-15.866 0-8.76 7.103-15.87 15.866-15.87m67.002 104c8.762 0 15.865 7.103 15.865 15.866s-7.103 15.866-15.866 15.866c-8.765 0-15.868-7.103-15.868-15.866s7.103-15.866 15.866-15.866m-66.998 69.675c8.762 0 15.865 7.11 15.865 15.872 0 8.763-7.103 15.866-15.866 15.866-8.765 0-15.868-7.103-15.868-15.866s7.103-15.872 15.866-15.872M1574.74 968c8.762 0 15.865 7.103 15.865 15.866s-7.103 15.866-15.866 15.866c-8.765 0-15.868-7.103-15.868-15.866S1565.976 968 1574.74 968m111-69c8.762 0 15.865 7.108 15.865 15.87 0 8.765-7.103 15.867-15.866 15.867-8.765 0-15.868-7.102-15.868-15.866 0-8.76 7.103-15.87 15.866-15.87m.002 211c8.762 0 15.865 7.108 15.865 15.87 0 8.765-7.103 15.867-15.866 15.867-8.765 0-15.868-7.102-15.868-15.866 0-8.76 7.103-15.87 15.866-15.87"/></g><g fill="#F9FF70"><path d="M342.08 934c8.762 0 15.865 7.108 15.865 15.87 0 8.765-7.103 15.867-15.866 15.867-8.765 0-15.868-7.102-15.868-15.866 0-8.76 7.103-15.87 15.866-15.87m122.175 69.47c8.763 0 15.865 7.102 15.865 15.865s-7.102 15.866-15.865 15.866c-8.764 0-15.866-7.1-15.866-15.864s7.102-15.866 15.866-15.866M600.943 899c8.764 0 15.867 7.108 15.867 15.87 0 8.765-7.103 15.867-15.866 15.867s-15.866-7.102-15.866-15.866c0-8.76 7.103-15.87 15.866-15.87m-35.73 211.027c8.762 0 15.864 7.108 15.864 15.87 0 8.764-7.102 15.867-15.865 15.867-8.764 0-15.866-7.103-15.866-15.866s7.102-15.87 15.866-15.87m176.707-72.09c8.762 0 15.865 7.108 15.865 15.872 0 8.763-7.103 15.865-15.866 15.865-8.765 0-15.868-7.102-15.868-15.865 0-8.764 7.103-15.872 15.866-15.872m110.882 72.09c8.762 0 15.865 7.107 15.865 15.87 0 8.763-7.103 15.866-15.866 15.866-8.765 0-15.868-7.103-15.868-15.866s7.103-15.87 15.866-15.87M947.08 968c8.762 0 15.865 7.103 15.865 15.866s-7.103 15.866-15.866 15.866c-8.765 0-15.868-7.103-15.868-15.866S938.316 968 947.08 968m74.72 142.027c8.762 0 15.865 7.108 15.865 15.87 0 8.764-7.103 15.867-15.866 15.867-8.765 0-15.868-7.103-15.868-15.866s7.103-15.87 15.866-15.87M1158.08 1073c8.762 0 15.865 7.108 15.865 15.87 0 8.765-7.103 15.867-15.866 15.867-8.765 0-15.868-7.102-15.868-15.866 0-8.76 7.103-15.87 15.866-15.87m54.002-139c8.762 0 15.865 7.108 15.865 15.87 0 8.765-7.103 15.867-15.866 15.867-8.765 0-15.868-7.102-15.868-15.866 0-8.76 7.103-15.87 15.866-15.87m91.002 104c8.762 0 15.865 7.108 15.865 15.87 0 8.765-7.103 15.867-15.866 15.867-8.765 0-15.868-7.102-15.868-15.866 0-8.76 7.103-15.87 15.866-15.87m66.002-69.525c8.762 0 15.865 7.102 15.865 15.865 0 8.764-7.103 15.866-15.866 15.866-8.765 0-15.868-7.102-15.868-15.866 0-8.763 7.103-15.865 15.866-15.865M1469.406 899c8.763 0 15.866 7.108 15.866 15.87 0 8.765-7.103 15.867-15.866 15.867s-15.866-7.102-15.866-15.866c0-8.76 7.103-15.87 15.866-15.87m38.874 211.027c8.763 0 15.865 7.108 15.865 15.87 0 8.764-7.102 15.867-15.866 15.867s-15.867-7.103-15.867-15.866 7.102-15.87 15.865-15.87M1575.08 934c8.762 0 15.865 7.108 15.865 15.87 0 8.765-7.103 15.867-15.866 15.867-8.765 0-15.868-7.102-15.868-15.866 0-8.76 7.103-15.87 15.866-15.87m111.002 69c8.762 0 15.865 7.103 15.865 15.866s-7.103 15.866-15.866 15.866c-8.765 0-15.868-7.103-15.868-15.866s7.103-15.866 15.866-15.866m-77.998 107c8.762 0 15.865 7.108 15.865 15.87 0 8.765-7.103 15.867-15.866 15.867-8.765 0-15.868-7.102-15.868-15.866 0-8.76 7.103-15.87 15.866-15.87"/></g><g fill="#FFF"><path d="M325.866 899c8.763 0 15.866 7.108 15.866 15.87 0 8.765-7.103 15.867-15.866 15.867S310 923.635 310 914.87c0-8.762 7.103-15.87 15.866-15.87m73.017 0c8.763 0 15.866 7.108 15.866 15.87 0 8.765-7.105 15.867-15.868 15.867s-15.866-7.102-15.866-15.866c0-8.76 7.103-15.87 15.866-15.87m-57.016 69.737c8.763 0 15.866 7.103 15.866 15.866s-7.103 15.866-15.866 15.866S326 993.364 326 984.6s7.103-15.866 15.866-15.866m.214 34.734c8.762 0 15.865 7.102 15.865 15.865s-7.103 15.866-15.866 15.866c-8.765 0-15.868-7.1-15.868-15.864s7.103-15.866 15.866-15.866m-.212 69.53c8.763 0 15.866 7.108 15.866 15.87 0 8.765-7.103 15.867-15.866 15.867S326 1097.635 326 1088.87c0-8.762 7.103-15.87 15.866-15.87m-16 37c8.763 0 15.866 7.108 15.866 15.87 0 8.765-7.103 15.867-15.866 15.867S310 1134.635 310 1125.87c0-8.762 7.103-15.87 15.866-15.87m111 0c8.763 0 15.866 7.108 15.866 15.87 0 8.765-7.103 15.867-15.866 15.867S421 1134.635 421 1125.87c0-8.762 7.103-15.87 15.866-15.87m27-37c8.763 0 15.866 7.108 15.866 15.87 0 8.765-7.103 15.867-15.866 15.867S448 1097.635 448 1088.87c0-8.762 7.103-15.87 15.866-15.87m0-104.263c8.763 0 15.866 7.103 15.866 15.866s-7.103 15.866-15.866 15.866S448 993.364 448 984.6s7.103-15.866 15.866-15.866m67-34.736c8.763 0 15.866 7.108 15.866 15.87 0 8.765-7.103 15.867-15.866 15.867S515 958.635 515 949.87c0-8.762 7.103-15.87 15.866-15.87m0 34.737c8.763 0 15.866 7.103 15.866 15.866s-7.103 15.866-15.866 15.866S515 993.364 515 984.6s7.103-15.866 15.866-15.866m.027 69.464c8.763 0 15.865 7.11 15.865 15.872 0 8.763-7.102 15.866-15.865 15.866-8.764 0-15.866-7.103-15.866-15.866s7.102-15.87 15.866-15.87m70.05 71.825c8.764 0 15.867 7.108 15.867 15.87 0 8.764-7.103 15.867-15.866 15.867s-15.866-7.103-15.866-15.866 7.103-15.87 15.866-15.87M674.866 1073c8.763 0 15.866 7.108 15.866 15.87 0 8.765-7.103 15.867-15.866 15.867S659 1097.635 659 1088.87c0-8.762 7.103-15.87 15.866-15.87m.414-34.8c8.762 0 15.865 7.11 15.865 15.872 0 8.763-7.103 15.866-15.866 15.866-8.765 0-15.868-7.103-15.868-15.866s7.103-15.87 15.866-15.87M637.406 899c8.763 0 15.866 7.108 15.866 15.87 0 8.765-7.103 15.867-15.866 15.867s-15.866-7.102-15.866-15.866c0-8.76 7.103-15.87 15.866-15.87m-72.193 0c8.763 0 15.865 7.108 15.865 15.87 0 8.765-7.102 15.867-15.865 15.867-8.764 0-15.866-7.102-15.866-15.866 0-8.76 7.102-15.87 15.866-15.87m176.707 0c8.762 0 15.865 7.108 15.865 15.87 0 8.765-7.103 15.867-15.866 15.867-8.765 0-15.868-7.102-15.868-15.866 0-8.76 7.103-15.87 15.866-15.87m-.052 69c8.763 0 15.866 7.103 15.866 15.866s-7.103 15.866-15.866 15.866S726 992.63 726 983.866 733.103 968 741.866 968m0 105c8.763 0 15.866 7.108 15.866 15.87 0 8.765-7.103 15.867-15.866 15.867S726 1097.635 726 1088.87c0-8.762 7.103-15.87 15.866-15.87m36.934 37.027c8.762 0 15.865 7.108 15.865 15.87 0 8.764-7.103 15.867-15.866 15.867-8.765 0-15.868-7.103-15.868-15.866s7.103-15.87 15.866-15.87M947.866 1003c8.763 0 15.866 7.103 15.866 15.866s-7.103 15.866-15.866 15.866S932 1027.63 932 1018.866 939.103 1003 947.866 1003m-.473 107.027c8.763 0 15.866 7.108 15.866 15.87 0 8.764-7.105 15.867-15.868 15.867-8.764 0-15.866-7.103-15.866-15.866s7.102-15.87 15.866-15.87m111.408 0c8.762 0 15.865 7.107 15.865 15.87 0 8.763-7.103 15.866-15.866 15.866-8.765 0-15.868-7.103-15.868-15.866s7.103-15.87 15.866-15.87M1175.866 1003c8.763 0 15.866 7.103 15.866 15.866s-7.103 15.866-15.866 15.866-15.866-7.103-15.866-15.866 7.103-15.866 15.866-15.866m17.874 34.833c8.763 0 15.865 7.11 15.865 15.872 0 8.763-7.102 15.866-15.866 15.866s-15.868-7.1-15.868-15.864 7.103-15.872 15.866-15.872m73.195 0c8.763 0 15.866 7.11 15.866 15.87 0 8.764-7.105 15.867-15.868 15.867s-15.866-7.1-15.866-15.864 7.103-15.872 15.866-15.872M1229.866 899c8.763 0 15.866 7.108 15.866 15.87 0 8.765-7.103 15.867-15.866 15.867S1214 923.635 1214 914.87c0-8.762 7.103-15.87 15.866-15.87m55 104c8.763 0 15.866 7.103 15.866 15.866s-7.103 15.866-15.866 15.866-15.866-7.103-15.866-15.866 7.103-15.866 15.866-15.866m18 107c8.763 0 15.866 7.108 15.866 15.87 0 8.765-7.103 15.867-15.866 15.867S1287 1134.635 1287 1125.87c0-8.762 7.103-15.87 15.866-15.87m67 0c8.763 0 15.866 7.108 15.866 15.87 0 8.765-7.103 15.867-15.866 15.867S1354 1134.635 1354 1125.87c0-8.762 7.103-15.87 15.866-15.87m0-176.263c8.763 0 15.866 7.11 15.866 15.872s-7.103 15.864-15.866 15.864S1354 958.372 1354 949.61c0-8.764 7.103-15.873 15.866-15.873M1435.8 899c8.762 0 15.865 7.108 15.865 15.87 0 8.765-7.103 15.867-15.866 15.867-8.765 0-15.868-7.102-15.868-15.866 0-8.76 7.103-15.87 15.866-15.87m-32.932 104c8.763 0 15.866 7.103 15.866 15.866s-7.103 15.866-15.866 15.866-15.866-7.103-15.866-15.866 7.103-15.866 15.866-15.866m67 0c8.763 0 15.866 7.103 15.866 15.866s-7.103 15.866-15.866 15.866-15.866-7.103-15.866-15.866 7.103-15.866 15.866-15.866m38-35c8.763 0 15.866 7.103 15.866 15.866s-7.103 15.866-15.866 15.866S1492 992.63 1492 983.866 1499.103 968 1507.866 968m206-34c8.763 0 15.866 7.108 15.866 15.87 0 8.765-7.103 15.867-15.866 15.867S1698 958.635 1698 949.87c0-8.762 7.103-15.87 15.866-15.87m-67 69c8.763 0 15.866 7.103 15.866 15.866s-7.103 15.866-15.866 15.866-15.866-7.103-15.866-15.866 7.103-15.866 15.866-15.866m67 70c8.763 0 15.866 7.108 15.866 15.87 0 8.765-7.103 15.867-15.866 15.867S1698 1097.635 1698 1088.87c0-8.762 7.103-15.87 15.866-15.87"/></g></g></svg>