<svg width="95" height="95" viewBox="0 0 95 95" xmlns="http://www.w3.org/2000/svg" xmlns:xlink="http://www.w3.org/1999/xlink"><defs><rect id="a" width="95" height="95" rx="22"/><linearGradient x1="50%" y1="0%" x2="50%" y2="100%" id="c"><stop stop-color="#CFE2AF" offset="0%"/><stop stop-color="#93C25B" offset="64.136%"/><stop stop-color="#A4D140" offset="100%"/></linearGradient><path d="M11.29 82.938c-1.187-1.24.108-2.112.878-2.287 9.493-2.157 16.388-6.603 20.565-17.048 4.118-10.295 6.887-34.387 7.565-40.77.09-.844-.573-1.574-1.423-1.574h-7.07c-.732 0-1.345.546-1.422 1.274-.35 3.312-1.392 12.445-2.91 19.775-1.89 9.126-3.043 19.075-8.468 23.76-3.444 2.976-6.92 4.49-10.114 5.054-.808.143-2.39-.412-2.39-1.98V24.118C6.5 14.403 14.4 6.5 24.114 6.5h46.772C80.6 6.5 88.5 14.403 88.5 24.117v46.78c0 9.485-7.534 17.244-16.933 17.603H23.434c-4.783-.183-9.076-2.29-12.144-5.562zm58.19-65.96c0-.543.44-.982.98-.982h3.466c.54 0 .98.44.98.98v8.646c0 .54-.44.98-.98.98H70.46c-.54 0-.98-.44-.98-.98v-8.645zm7.192 62.985h-6.535c-1.177 0-2.17-.872-2.328-2.037-3.474-25.24-9.214-48.496-10.863-54.92-.228-.887.443-1.748 1.358-1.748h6.457c.608 0 1.15.398 1.337.976 9.34 28.718 12.155 48.352 12.912 55.122.155 1.394-.938 2.607-2.34 2.607zm6.537-54.34c0 .54-.44.98-.98.98h-3.466c-.542 0-.98-.44-.98-.98v-8.646c0-.542.438-.98.98-.98h3.465c.54 0 .98.438.98.98v8.645z" id="b"/></defs><g fill="none" fill-rule="evenodd"><g><mask><use xlink:href="#a"/></mask><use fill="#fff" xlink:href="#a"/><mask><use xlink:href="#b"/></mask><use fill="url(#c)" xlink:href="#b"/></g></g></svg>