<svg width="95" height="95" viewBox="0 0 95 95" xmlns="http://www.w3.org/2000/svg" xmlns:xlink="http://www.w3.org/1999/xlink"><defs><rect id="a" width="95" height="95" rx="22"/><linearGradient x1="50%" y1="0%" x2="50%" y2="100%" id="c"><stop stop-color="#89CAEC" offset="0%"/><stop stop-color="#3F7AB5" offset="60.065%"/><stop stop-color="#1D7ABB" offset="100%"/></linearGradient><path d="M70.886 6.5H24.114C14.4 6.5 6.5 14.4 6.5 24.114v46.772C6.5 80.6 14.4 88.5 24.114 88.5h46.772C80.6 88.5 88.5 80.6 88.5 70.886V24.114C88.5 14.4 80.6 6.5 70.886 6.5zm5.928 61.72c0 4.865-3.94 8.806-8.805 8.806H21.53c-1.934 0-3.502-1.568-3.502-3.503V23.62c0-1.936 1.568-3.504 3.503-3.504h51.78c1.94 0 3.51 1.568 3.51 3.503v44.6zM42.302 31.585v10.553c0 .988-.802 1.79-1.79 1.79h-10.7c-.99 0-1.79-.802-1.79-1.79V31.584c0-.99.8-1.792 1.79-1.792H40.51c.99 0 1.792.802 1.792 1.792zm24.517 0v10.553c0 .988-.81 1.79-1.8 1.79H54.33c-.988 0-1.79-.802-1.79-1.79V31.584c0-.99.802-1.792 1.79-1.792h10.7c.99 0 1.79.802 1.79 1.792zM42.3 55.005V65.56c0 .988-.802 1.79-1.79 1.79H29.813c-.99 0-1.79-.802-1.79-1.79V55.005c0-.99.8-1.79 1.79-1.79H40.51c.99 0 1.792.8 1.792 1.79zm24.517 0V65.56c0 .988-.803 1.79-1.792 1.79H54.33c-.988 0-1.79-.802-1.79-1.79V55.005c0-.99.802-1.79 1.79-1.79h10.7c.99 0 1.79.8 1.79 1.79z" id="b"/></defs><g fill="none" fill-rule="evenodd"><mask><use xlink:href="#a"/></mask><use fill="#fff" xlink:href="#a"/><mask><use xlink:href="#b"/></mask><use fill="url(#c)" xlink:href="#b"/></g></svg>